<?xml version="1.0" encoding="utf-8"?>
<!-- Generator: Adobe Illustrator 26.2.1, SVG Export Plug-In . SVG Version: 6.00 Build 0)  -->
<svg version="1.1" id="Layer_1" xmlns="http://www.w3.org/2000/svg" xmlns:xlink="http://www.w3.org/1999/xlink" x="0px" y="0px"
	 viewBox="0 0 35.9 37.3" style="enable-background:new 0 0 35.9 37.3;" xml:space="preserve">
<style type="text/css">
	.st0{fill:#1E59AE;}
</style>
<g>
	<path class="st0" d="M35.9,0v17.5H19V0H35.9z M15.9,21.8c-1.1-0.1-1.7-0.8-1.8-2.1V0h-0.8v19.7c0.1,1.7,1,2.8,2.5,2.8h15.3l-4.8,5
		H14.5c-3-0.4-6.2-2.9-6.1-7V0H7.6v20.6c-0.1,4.5,3.5,7.3,6.9,7.8h11.1L21,33.1h-6.7C9.7,32.9,3.2,29.4,3,21.1V0H0.1v37.3h35.9V17.6
		l-4,4.2L15.9,21.8z"/>
</g>
</svg>
