<?xml version="1.0" encoding="utf-8"?>
<!-- Generator: Adobe Illustrator 26.2.1, SVG Export Plug-In . SVG Version: 6.00 Build 0)  -->
<svg version="1.1" id="Layer_1" xmlns="http://www.w3.org/2000/svg" xmlns:xlink="http://www.w3.org/1999/xlink" x="0px" y="0px"
	 viewBox="0 0 1400 1400" style="enable-background:new 0 0 1400 1400;" xml:space="preserve">
<style type="text/css">
	.st0{fill:#132A4C;}
	.st1{fill:#FDFDFB;}
	.st2{fill:#E74927;}
</style>
<g>
	<g>
		<path class="st0" d="M0,0c466.7,0,933.3,0,1400,0c0,466.7,0,933.3,0,1400c-466.7,0-933.3,0-1400,0C0,933.3,0,466.7,0,0z
			 M701.8,245C701.8,245,701.8,245,701.8,245c-103,0-206,0-309,0c-7.8,0-7.8,0-7.8,7.2c-0.1,78-0.1,156-0.2,234c0,3,1,4,4.1,4
			c43.2-0.1,86.3,0,129.5,0c6.8,0,6.8-0.1,6.8,6.7c0,110.5,0.1,221,0.1,331.5c0,25.2-0.2,50.3,0.1,75.5c0.1,5-1.3,6.2-6.1,6.2
			c-43.5-0.2-87-0.1-130.5-0.1c-3.2,0-4.1,1.3-4,4.2c0.2,5.2,0.1,10.3,0.1,15.5c0,73.7,0,147.3-0.1,221c0,4.1,1.7,4.6,5.1,4.6
			c110.3-0.1,220.6-0.1,331-0.1c97.7,0,195.3,0,293,0.1c3.5,0,4.7-1.1,4.6-4.6c-0.2-7.5-0.1-15-0.1-22.5c0-70.7-0.1-141.3,0.1-212
			c0-4.8-1-6.3-6-6.3c-43,0.2-86,0.1-129,0.2c-4,0-5.6-1-5.5-5.4c0.2-19.2,0-38.3,0-57.5c0-116.5,0.1-233,0.1-349.5
			c0-7.7,0-7.6,7.6-7.6c42.7,0,85.3,0,128,0.1c3.8,0,4.9-1.2,4.8-4.9c-0.1-57.2-0.1-114.3-0.2-171.5c0-21.5,0-43,0.1-64.5
			c0-3.2-0.9-4.6-4.3-4.4c-3.7,0.2-7.3,0.1-11,0.1C902.8,245,802.3,245,701.8,245z"/>
		<path class="st1" d="M701.8,245c100.5,0,201,0,301.5,0c3.7,0,7.3,0.2,11-0.1c3.4-0.2,4.3,1.2,4.3,4.4c-0.1,21.5-0.1,43-0.1,64.5
			c0,57.2,0,114.3,0.2,171.5c0,3.7-1.1,4.9-4.8,4.9c-42.7-0.1-85.3-0.1-128-0.1c-7.6,0-7.6-0.1-7.6,7.6c0,116.5-0.1,233-0.1,349.5
			c0,19.2,0.2,38.3,0,57.5c0,4.4,1.6,5.4,5.5,5.4c43-0.1,86,0,129-0.2c5,0,6,1.5,6,6.3c-0.2,70.7-0.1,141.3-0.1,212
			c0,7.5-0.1,15,0.1,22.5c0.1,3.5-1.1,4.6-4.6,4.6c-97.7-0.1-195.3-0.1-293-0.1c-110.3,0-220.6,0-331,0.1c-3.4,0-5.1-0.5-5.1-4.6
			c0.1-73.7,0.1-147.3,0.1-221c0-5.2,0-10.3-0.1-15.5c-0.1-2.9,0.7-4.2,4-4.2c43.5,0.1,87,0,130.5,0.1c4.8,0,6.2-1.2,6.1-6.2
			c-0.3-25.2-0.1-50.3-0.1-75.5c0-110.5-0.1-221-0.1-331.5c0-6.9,0-6.8-6.8-6.7c-43.2,0-86.3,0-129.5,0c-3.1,0-4.1-1-4.1-4
			c0.1-78,0.1-156,0.2-234c0-7.2,0.1-7.2,7.8-7.2C495.9,245,598.9,245,701.8,245C701.8,245,701.8,245,701.8,245z M701,1120
			C701,1120,701,1120,701,1120c91,0,182,0,273,0c11.8,0,9.7,0.2,9.7-9.5c0-53,0-106-0.1-159c0-6.3-0.9-7-6.8-6.9
			c-29.5,0.1-59,0.2-88.5,0.1c-7.3,0-14.2-0.5-21.5-2.8c-12.3-3.8-23-18.5-23-30.9c0-99.5-0.1-199-0.1-298.5
			c0-40.8-0.1-81.7,0.3-122.5c0.1-5.6,1.5-11.7,4.1-16.5c6.5-12,17.7-18,31-18.2c31-0.6,62-0.1,93-0.2c12.6,0,11.6,1.9,11.7-11.9
			c0.1-52,0-104,0.1-156c0-7.3,0.1-7.3-6.9-7.3c-183.8,0-367.6,0-551.4-0.1c-4.2,0-5.4,1.3-5.4,5.5c0.2,30,0.1,60,0.1,90
			c0,24.8,0,49.7-0.1,74.5c0,3.2,0.3,5.5,4.4,5.5c31.3-0.2,62.6-0.2,94-0.4c9.8-0.1,18.9,1.7,27,7.6c9.1,6.6,14.8,14.9,14.8,26.5
			c0,139.7,0,279.3-0.1,419c0,5.5-0.2,10.6-2.8,15.9c-6.4,13.1-17.3,20.2-30.8,20.6c-33.3,0.9-66.6,0.4-100,0.4
			c-6.4,0-6.5,0-6.5,6.2c0,54.7,0,109.3-0.1,164c0,3.9,1.1,5.2,5.1,5.2C517,1120,609,1120,701,1120z"/>
		<path class="st2" d="M701,1120c-92,0-184,0-276,0.1c-4,0-5.1-1.2-5.1-5.2c0.1-54.7,0.1-109.3,0.1-164c0-6.2,0.1-6.2,6.5-6.2
			c33.3,0,66.7,0.6,100-0.4c13.5-0.4,24.4-7.5,30.8-20.6c2.6-5.3,2.8-10.4,2.8-15.9c0-139.7,0-279.3,0.1-419
			c0-11.7-5.6-19.9-14.8-26.5c-8.1-5.9-17.3-7.6-27-7.6c-31.3,0.2-62.6,0.2-94,0.4c-4.1,0-4.5-2.3-4.4-5.5
			c0.1-24.8,0.1-49.7,0.1-74.5c0-30,0.1-60-0.1-90c0-4.1,1.2-5.5,5.4-5.5c183.8,0.1,367.6,0.1,551.4,0.1c7,0,6.9,0,6.9,7.3
			c0,52,0,104-0.1,156c0,13.8,1,11.9-11.7,11.9c-31,0.1-62-0.4-93,0.2c-13.2,0.2-24.5,6.3-31,18.2c-2.6,4.9-4.1,11-4.1,16.5
			c-0.4,40.8-0.3,81.7-0.3,122.5c0,99.5,0.1,199,0.1,298.5c0,12.4,10.7,27.1,23,30.9c7.3,2.2,14.3,2.8,21.5,2.8
			c29.5,0,59-0.1,88.5-0.1c6,0,6.8,0.6,6.8,6.9c0.1,53,0.1,106,0.1,159c0,9.7,2.2,9.5-9.7,9.5C883,1120,792,1120,701,1120
			C701,1120,701,1120,701,1120z"/>
	</g>
</g>
</svg>
